<svg width="40" height="40" viewBox="0 0 40 40" xmlns="http://www.w3.org/2000/svg">
  <!-- Leaf shape -->
  <path d="M20 5C13 5 5 13 5 20C5 27 13 35 20 35C27 35 35 27 35 20C35 13 27 5 20 5ZM20 30C15.5 30 10 24.5 10 20C10 15.5 15.5 10 20 10C24.5 10 30 15.5 30 20C30 24.5 24.5 30 20 30Z" fill="#4CAF50"/>
  <!-- Fork icon -->
  <path d="M25 15C25 13.3431 23.6569 12 22 12C20.3431 12 19 13.3431 19 15C19 16.3 19.84 17.4 21 17.83V27H23V17.83C24.16 17.4 25 16.3 25 15Z" fill="#4CAF50"/>
  <!-- Knife icon -->
  <path d="M16 12C14.3431 12 13 13.3431 13 15C13 16.3 13.84 17.4 15 17.83V27H17V17.83C18.16 17.4 19 16.3 19 15C19 13.3431 17.6569 12 16 12Z" fill="#4CAF50"/>
  <!-- Brain/AI element -->
  <circle cx="20" cy="20" r="3" fill="#2196F3"/>
  <path d="M20 15C17.2386 15 15 17.2386 15 20C15 22.7614 17.2386 25 20 25" stroke="#2196F3" stroke-width="1.5" fill="none" stroke-dasharray="2 2"/>
</svg>