<svg xmlns="http://www.w3.org/2000/svg" width="200" height="100" viewBox="0 0 200 100"><rect width="100%" height="100%" fill="#e2e8f0"/><path fill="#334155" d="M45.28 58.66h4.49q1.24 0 2.08-.29.84-.3 1.35-.79.5-.5.72-1.16t.22-1.4q0-.78-.24-1.4-.25-.61-.78-1.05t-1.36-.67-2-.23h-4.48zm3.78-16.96h-3.78v6.9h3.54q2.27 0 3.44-.83 1.16-.82 1.16-2.62 0-1.86-1.06-2.66-1.05-.79-3.3-.79m-8.21-3.43h8.21q2.35 0 4.01.45 1.67.44 2.73 1.27 1.07.82 1.56 1.99.5 1.17.5 2.64 0 .85-.25 1.61-.25.77-.77 1.44t-1.32 1.21-1.9.92q4.91 1.11 4.91 5.32 0 1.52-.57 2.8-.58 1.29-1.69 2.22-1.1.93-2.72 1.46t-3.7.53h-9zm30.03 19.49V54.9q-1.77.09-2.97.31-1.21.22-1.93.57-.73.34-1.04.81-.32.46-.32 1 0 1.07.64 1.54.63.46 1.66.46 1.25 0 2.17-.45.91-.46 1.79-1.38m-8.62-8.9-.72-1.3q2.92-2.67 7.03-2.67 1.48 0 2.65.48 1.17.49 1.98 1.36.81.86 1.23 2.07.42 1.2.42 2.64v10.69H73q-.57 0-.89-.17-.31-.18-.49-.7l-.36-1.23q-.65.58-1.26 1.02t-1.27.73q-.66.3-1.41.46-.75.15-1.66.15-1.07 0-1.98-.28-.91-.29-1.57-.87t-1.02-1.44q-.36-.85-.36-1.99 0-.65.21-1.28.22-.64.7-1.21.49-.58 1.27-1.09.77-.52 1.9-.89 1.13-.38 2.63-.62 1.51-.24 3.44-.29v-.99q0-1.7-.73-2.52t-2.1-.82q-.99 0-1.64.24-.65.23-1.14.52-.5.28-.9.52-.41.23-.9.23-.43 0-.73-.23-.3-.22-.48-.52m20.02-2.64.24 1.92q.8-1.52 1.89-2.39 1.08-.86 2.57-.86 1.17 0 1.88.51l-.26 3.05q-.09.3-.24.42-.16.13-.42.13-.25 0-.74-.09-.48-.08-.95-.08-.67 0-1.2.2t-.95.57-.74.9-.6 1.2v10.43h-4.08V45.2h2.39q.63 0 .88.22.24.23.33.8m21.91 1.08-1.07 1.48q-.18.23-.36.36-.17.14-.5.14-.31 0-.61-.19t-.71-.43-.98-.43-1.41-.19q-1.08 0-1.88.39-.81.38-1.35 1.11t-.8 1.76-.26 2.33q0 1.36.29 2.41.28 1.06.83 1.78.54.71 1.32 1.08.77.38 1.75.38.97 0 1.57-.24.61-.24 1.02-.53t.72-.53q.3-.24.68-.24.5 0 .74.38l1.17 1.49q-.67.79-1.46 1.32-.8.54-1.65.86t-1.74.46q-.9.13-1.8.13-1.56 0-2.95-.59-1.38-.58-2.42-1.71-1.04-1.12-1.65-2.74-.6-1.63-.6-3.71 0-1.86.54-3.45.53-1.6 1.57-2.76t2.58-1.82q1.53-.66 3.53-.66 1.9 0 3.32.61 1.43.61 2.57 1.75m10.2-2.36q1.88 0 3.42.61t2.64 1.73 1.69 2.74q.6 1.62.6 3.61 0 2.02-.6 3.63-.59 1.62-1.69 2.76t-2.64 1.75-3.42.61q-1.9 0-3.45-.61t-2.65-1.75-1.7-2.76q-.6-1.61-.6-3.63 0-1.99.6-3.61t1.7-2.74 2.65-1.73 3.45-.61m0 14.3q2.11 0 3.12-1.42 1.02-1.42 1.02-4.15 0-2.74-1.02-4.18-1.01-1.43-3.12-1.43-2.15 0-3.18 1.44t-1.03 4.17q0 2.72 1.03 4.15 1.03 1.42 3.18 1.42m22.09-2.13v-7.59q-.69-.84-1.51-1.18-.82-.35-1.76-.35-.92 0-1.66.35-.75.34-1.27 1.04-.53.71-.81 1.79t-.28 2.54q0 1.49.24 2.52t.68 1.68q.45.66 1.09.94.64.29 1.44.29 1.27 0 2.16-.52.89-.53 1.68-1.51m0-19.5h4.08v24.52h-2.5q-.8 0-1.02-.74l-.35-1.64q-1.02 1.18-2.35 1.9-1.33.73-3.09.73-1.39 0-2.54-.58-1.16-.58-1.99-1.67-.83-1.1-1.29-2.72-.45-1.62-.45-3.7 0-1.88.51-3.49.51-1.62 1.47-2.81t2.29-1.85q1.34-.67 3.01-.67 1.41 0 2.42.44 1.01.45 1.8 1.21zm11.32 14.11h7.69q0-.79-.22-1.49-.23-.71-.67-1.23-.45-.53-1.13-.84-.69-.3-1.6-.3-1.76 0-2.78 1-1.01 1.01-1.29 2.86m10.39 2.46h-10.47q.1 1.3.46 2.25t.96 1.57q.59.62 1.41.92.81.31 1.8.31t1.71-.24q.72-.23 1.25-.51.54-.28.95-.51.4-.23.78-.23.51 0 .76.38l1.17 1.49q-.68.79-1.52 1.32-.84.54-1.76.86-.91.32-1.86.46-.95.13-1.84.13-1.77 0-3.28-.59-1.52-.58-2.64-1.73-1.13-1.15-1.77-2.84t-.64-3.92q0-1.73.56-3.26.56-1.52 1.61-2.65 1.04-1.13 2.55-1.79t3.41-.66q1.6 0 2.96.51 1.35.51 2.32 1.49.98.98 1.53 2.41t.55 3.26q0 .92-.2 1.25-.2.32-.76.32"/></svg>