<svg width="300" height="200" viewBox="0 0 300 200" xmlns="http://www.w3.org/2000/svg">
  <!-- Background -->
  <rect x="0" y="0" width="300" height="200" rx="10" fill="#F0F7F0"/>
  
  <!-- Food image -->
  <circle cx="100" cy="100" r="40" fill="#FF9800" opacity="0.3"/>
  <circle cx="100" cy="100" r="30" fill="#FFF" opacity="0.5"/>
  <circle cx="90" cy="90" r="8" fill="#4CAF50"/>
  <rect x="105" y="85" width="20" height="6" rx="1" fill="#F44336"/>
  <rect x="95" y="105" width="25" height="6" rx="1" fill="#2196F3"/>
  
  <!-- AI processing elements -->
  <circle cx="150" cy="70" r="15" fill="#2196F3" opacity="0.2"/>
  <circle cx="180" cy="90" r="20" fill="#4CAF50" opacity="0.2"/>
  <circle cx="150" cy="120" r="18" fill="#FF9800" opacity="0.2"/>
  <circle cx="180" cy="140" r="15" fill="#F44336" opacity="0.2"/>
  
  <!-- Connection lines -->
  <line x1="120" y1="80" x2="140" y2="70" stroke="#2196F3" stroke-width="1.5" stroke-dasharray="3,3"/>
  <line x1="120" y1="100" x2="165" y2="90" stroke="#4CAF50" stroke-width="1.5" stroke-dasharray="3,3"/>
  <line x1="120" y1="110" x2="140" y2="120" stroke="#FF9800" stroke-width="1.5" stroke-dasharray="3,3"/>
  <line x1="120" y1="120" x2="170" y2="140" stroke="#F44336" stroke-width="1.5" stroke-dasharray="3,3"/>
  
  <!-- Analysis result -->
  <rect x="200" y="60" width="80" height="100" rx="5" fill="white" stroke="#DDD" stroke-width="1"/>
  
  <!-- Food name -->
  <rect x="210" y="70" width="60" height="10" rx="2" fill="#4CAF50" opacity="0.8"/>
  
  <!-- Nutrition bars -->
  <rect x="210" y="90" width="50" height="8" rx="4" fill="#4CAF50" opacity="0.8"/>
  <text x="265" y="97" font-family="Arial" font-size="8" fill="#666">Protein</text>
  
  <rect x="210" y="105" width="35" height="8" rx="4" fill="#2196F3" opacity="0.8"/>
  <text x="265" y="112" font-family="Arial" font-size="8" fill="#666">Carbs</text>
  
  <rect x="210" y="120" width="60" height="8" rx="4" fill="#FF9800" opacity="0.8"/>
  <text x="265" y="127" font-family="Arial" font-size="8" fill="#666">Fiber</text>
  
  <rect x="210" y="135" width="25" height="8" rx="4" fill="#F44336" opacity="0.8"/>
  <text x="265" y="142" font-family="Arial" font-size="8" fill="#666">Fat</text>
  
  <!-- AI brain icon -->
  <circle cx="150" cy="100" r="25" fill="none" stroke="#2196F3" stroke-width="1.5" stroke-dasharray="5,3"/>
  <path d="M140 90 C145 85, 155 85, 160 90 C165 95, 165 105, 160 110 C155 115, 145 115, 140 110 C135 105, 135 95, 140 90 Z" fill="none" stroke="#2196F3" stroke-width="1.5"/>
  <path d="M150 85 L150 115 M140 100 L160 100" stroke="#2196F3" stroke-width="1.5"/>
</svg>